<svg xmlns="http://www.w3.org/2000/svg" width="20" height="20" viewBox="0 0 20 20" fill="none">
  <g clip-path="url(#clip0_1448_3085)">
    <path d="M9.99958 0.710938C11.625 0.710938 13.1838 1.35662 14.3331 2.50595C15.4825 3.65528 16.1282 5.21411 16.1282 6.83951C16.1282 13.6538 18.6139 14.9967 19.2853 14.9967H0.713867C1.39958 14.9967 3.87101 13.6395 3.87101 6.83951C3.87101 5.21411 4.5167 3.65528 5.66603 2.50595C6.81536 1.35662 8.37418 0.710938 9.99958 0.710938V0.710938Z" stroke="black" stroke-width="1.4" stroke-linecap="round" stroke-linejoin="round"/>
    <path d="M7.85645 17.6094C7.97993 18.0837 8.25731 18.5036 8.64509 18.8034C9.03288 19.1032 9.50917 19.2658 9.9993 19.2658C10.4894 19.2658 10.9657 19.1032 11.3535 18.8034C11.7413 18.5036 12.0187 18.0837 12.1422 17.6094" stroke="black" stroke-width="1.4" stroke-linecap="round" stroke-linejoin="round"/>
  </g>
  <defs>
    <clipPath id="clip0_1448_3085">
      <rect width="20" height="20" fill="white"/>
    </clipPath>
  </defs>
</svg>