<svg xmlns="http://www.w3.org/2000/svg" width="21" height="22" viewBox="0 0 21 22" fill="none">
  <path d="M7.03415 3.69231L7.75467 1.98462C7.87618 1.69548 8.08997 1.44679 8.36803 1.2711C8.64609 1.09541 8.97546 1.00092 9.313 1H10.687C11.0245 1.00092 11.3539 1.09541 11.632 1.2711C11.91 1.44679 12.1238 1.69548 12.2453 1.98462L12.9659 3.69231L15.4123 4.98462L17.3895 4.70769C17.7187 4.66666 18.0538 4.71642 18.3522 4.85065C18.6505 4.98488 18.8987 5.19752 19.0651 5.46154L19.7354 6.53846C19.9071 6.80669 19.9862 7.11643 19.9623 7.4268C19.9384 7.73717 19.8125 8.03359 19.6013 8.27692L18.3781 9.70769V12.2923L19.6348 13.7231C19.846 13.9664 19.9719 14.2628 19.9958 14.5732C20.0197 14.8836 19.9406 15.1933 19.7689 15.4615L19.0986 16.5385C18.9322 16.8025 18.684 17.0151 18.3857 17.1493C18.0873 17.2836 17.7522 17.3333 17.423 17.2923L15.4458 17.0154L12.9994 18.3077L12.2788 20.0154C12.1573 20.3045 11.9435 20.5532 11.6655 20.7289C11.3874 20.9046 11.0581 20.9991 10.7205 21H9.313C8.97546 20.9991 8.64609 20.9046 8.36803 20.7289C8.08997 20.5532 7.87618 20.3045 7.75467 20.0154L7.03415 18.3077L4.58775 17.0154L2.61051 17.2923C2.28128 17.3333 1.9462 17.2836 1.64784 17.1493C1.34948 17.0151 1.10132 16.8025 0.934892 16.5385L0.264643 15.4615C0.0928947 15.1933 0.0137647 14.8836 0.0376969 14.5732C0.061629 14.2628 0.187498 13.9664 0.398693 13.7231L1.6219 12.2923V9.70769L0.36518 8.27692C0.153986 8.03359 0.0281166 7.73717 0.00418448 7.4268C-0.0197477 7.11643 0.0593821 6.80669 0.231131 6.53846L0.901379 5.46154C1.06781 5.19752 1.31597 4.98488 1.61433 4.85065C1.91268 4.71642 2.24777 4.66666 2.577 4.70769L4.55423 4.98462L7.03415 3.69231ZM6.64876 11C6.64876 11.6086 6.84531 12.2034 7.21355 12.7094C7.58178 13.2154 8.10518 13.6098 8.71754 13.8427C9.3299 14.0756 10.0037 14.1365 10.6538 14.0178C11.3039 13.8991 11.901 13.606 12.3697 13.1757C12.8384 12.7454 13.1575 12.1971 13.2868 11.6003C13.4162 11.0034 13.3498 10.3847 13.0961 9.82251C12.8425 9.26028 12.413 8.77973 11.8619 8.44163C11.3107 8.10354 10.6628 7.92308 10 7.92308C9.1112 7.92308 8.25879 8.24725 7.63031 8.82429C7.00184 9.40132 6.64876 10.1839 6.64876 11Z" stroke="black" stroke-width="1.4" stroke-linecap="round" stroke-linejoin="round"/>
</svg>