<svg width="60" height="60" viewBox="0 0 60 60" fill="none" xmlns="http://www.w3.org/2000/svg">
<g clip-path="url(#clip0_737_469)">
<path d="M30 60C46.5685 60 60 46.5685 60 30C60 13.4315 46.5685 0 30 0C13.4315 0 0 13.4315 0 30C0 46.5685 13.4315 60 30 60Z" fill="#26A17B"/>
<path fill-rule="evenodd" clip-rule="evenodd" d="M33.6038 32.5966V32.5928C33.3975 32.6078 32.3344 32.6716 29.9625 32.6716C28.0687 32.6716 26.7356 32.6153 26.2669 32.5928V32.5984C18.9769 32.2778 13.5356 31.0084 13.5356 29.4897C13.5356 27.9728 18.9769 26.7034 26.2669 26.3772V31.3347C26.7431 31.3684 28.1081 31.4491 29.9944 31.4491C32.2575 31.4491 33.3919 31.3553 33.6038 31.3366V26.3809C40.8787 26.7053 46.3069 27.9747 46.3069 29.4897C46.3069 31.0084 40.8787 32.2741 33.6038 32.5966ZM33.6038 25.8653V21.4291H43.755V14.6641H16.1156V21.4291H26.2669V25.8634C18.0169 26.2422 11.8125 27.8772 11.8125 29.8347C11.8125 31.7922 18.0169 33.4253 26.2669 33.8059V48.0222H33.6038V33.8022C41.8406 33.4234 48.03 31.7903 48.03 29.8347C48.03 27.8791 41.8406 26.2459 33.6038 25.8653Z" fill="white"/>
</g>
<defs>
<clipPath id="clip0_737_469">
<rect width="60" height="60" fill="white"/>
</clipPath>
</defs>
</svg>
