<svg xmlns="http://www.w3.org/2000/svg" width="30" height="30" viewBox="0 0 30 30" fill="none">
  <path d="M27.9228 13.9219H19.3074C18.7126 13.9219 18.2305 14.404 18.2305 14.9988V27.9219C18.2305 28.5166 18.7126 28.9988 19.3074 28.9988H27.9228C28.5175 28.9988 28.9997 28.5166 28.9997 27.9219V14.9988C28.9997 14.404 28.5175 13.9219 27.9228 13.9219Z" stroke="#1E3D6B" stroke-width="2" stroke-linecap="round" stroke-linejoin="round"/>
  <path d="M27.9228 1H19.3074C18.7126 1 18.2305 1.48215 18.2305 2.07692V6.40615C18.2305 7.00092 18.7126 7.48308 19.3074 7.48308H27.9228C28.5175 7.48308 28.9997 7.00092 28.9997 6.40615V2.07692C28.9997 1.48215 28.5175 1 27.9228 1Z" stroke="#1E3D6B" stroke-width="2" stroke-linecap="round" stroke-linejoin="round"/>
  <path d="M10.6923 1H2.07692C1.48215 1 1 1.48215 1 2.07692V15C1 15.5948 1.48215 16.0769 2.07692 16.0769H10.6923C11.2871 16.0769 11.7692 15.5948 11.7692 15V2.07692C11.7692 1.48215 11.2871 1 10.6923 1Z" stroke="#1E3D6B" stroke-width="2" stroke-linecap="round" stroke-linejoin="round"/>
  <path d="M10.6923 22.5156H2.07692C1.48215 22.5156 1 22.9978 1 23.5925V27.9218C1 28.5165 1.48215 28.9987 2.07692 28.9987H10.6923C11.2871 28.9987 11.7692 28.5165 11.7692 27.9218V23.5925C11.7692 22.9978 11.2871 22.5156 10.6923 22.5156Z" stroke="#1E3D6B" stroke-width="2" stroke-linecap="round" stroke-linejoin="round"/>
</svg>