<svg xmlns="http://www.w3.org/2000/svg" width="28" height="28" viewBox="0 0 28 28" fill="none">
  <g clip-path="url(#clip0_1448_3228)">
    <path d="M27 13.88C27.0019 13.6024 26.946 13.3274 26.8358 13.0726C26.7256 12.8178 26.5636 12.5888 26.36 12.4L14 1L1.64005 12.4C1.4365 12.5888 1.27447 12.8178 1.16429 13.0726C1.0541 13.3274 0.998167 13.6024 1.00005 13.88V25C1.00005 25.5304 1.21076 26.0391 1.58583 26.4142C1.96091 26.7893 2.46961 27 3.00005 27H25C25.5305 27 26.0392 26.7893 26.4143 26.4142C26.7893 26.0391 27 25.5304 27 25V13.88Z" stroke="#1E3D6B" stroke-width="2" stroke-linecap="round" stroke-linejoin="round"/>
  </g>
  <defs>
    <clipPath id="clip0_1448_3228">
      <rect width="28" height="28" fill="white"/>
    </clipPath>
  </defs>
</svg>